# xmcd CD database file
#
# Track frame offsets:
#	150
#	22758
#	42203
#	63578
#	83009
#	104676
#	123390
#	143239
#	165018
#	184867
#	205385
#	221598
#	238974
#	267949
#	284211
#	305244
#
# Disc length: 4344 seconds
#
# Revision: 1
# Processed by: cddbd v1.5.2PL0 Copyright (c) Steve Scherf et al.
# Submitted via: CDex 1.74
#
DISCID=f210f610
DTITLE=Rod Stewart - Story So Far: Very Best of
DYEAR=2001
DGENRE=Blues
TTITLE0=Maggie May
TTITLE1=You Wear It Well
TTITLE2=Baby Jane
TTITLE3=Da Ya Think I'm Sexy
TTITLE4=I Was Only Joking
TTITLE5=This Old Heart Of Mine
TTITLE6=Sailing
TTITLE7=I Don't Want To Talk About It
TTITLE8=You're In My Heart
TTITLE9=Young Turks
TTITLE10=What Am I Gonna Do (I'm So In Love With You)
TTITLE11=The First Cut Is The Deepest
TTITLE12=The Killing Of George (Part I and II)
TTITLE13=Tonight's The Night
TTITLE14=Every Beat Of My Heart
TTITLE15=Downtown Train
EXTD=YEAR: 2001
EXTT0=
EXTT1=
EXTT2=
EXTT3=
EXTT4=
EXTT5=
EXTT6=
EXTT7=
EXTT8=
EXTT9=
EXTT10=
EXTT11=
EXTT12=
EXTT13=
EXTT14=
EXTT15=
PLAYORDER=
